<svg xmlns="http://www.w3.org/2000/svg" viewBox="0 0 512 512">
  <rect width="512" height="512" rx="96" fill="#0d1b2a"/>
  <rect width="512" height="512" rx="96" fill="url(#bg)"/>
  <defs>
    <radialGradient id="bg" cx="40%" cy="35%">
      <stop offset="0%" stop-color="#152232"/>
      <stop offset="100%" stop-color="#0d1b2a"/>
    </radialGradient>
  </defs>
  <!-- Pickleball paddle -->
  <ellipse cx="256" cy="210" rx="115" ry="145" fill="#2d7a3a" rx="115"/>
  <ellipse cx="256" cy="210" rx="115" ry="145" fill="#3fa050"/>
  <!-- Paddle holes -->
  <circle cx="220" cy="175" r="14" fill="#0d1b2a" opacity="0.5"/>
  <circle cx="256" cy="165" r="14" fill="#0d1b2a" opacity="0.5"/>
  <circle cx="292" cy="175" r="14" fill="#0d1b2a" opacity="0.5"/>
  <circle cx="210" cy="210" r="14" fill="#0d1b2a" opacity="0.5"/>
  <circle cx="246" cy="205" r="14" fill="#0d1b2a" opacity="0.5"/>
  <circle cx="282" cy="210" r="14" fill="#0d1b2a" opacity="0.5"/>
  <circle cx="220" cy="245" r="14" fill="#0d1b2a" opacity="0.5"/>
  <circle cx="256" cy="245" r="14" fill="#0d1b2a" opacity="0.5"/>
  <circle cx="292" cy="245" r="14" fill="#0d1b2a" opacity="0.5"/>
  <!-- Handle -->
  <rect x="232" y="348" width="48" height="90" rx="24" fill="#e8b84b"/>
  <!-- Ball -->
  <circle cx="370" cy="340" r="48" fill="#f0f4f0"/>
  <path d="M330 318 Q370 295 410 318" stroke="#ccc" stroke-width="3" fill="none"/>
  <path d="M326 352 Q370 375 414 352" stroke="#ccc" stroke-width="3" fill="none"/>
</svg>
